<svg width="20" height="20" viewBox="0 0 20 20" fill="none" xmlns="http://www.w3.org/2000/svg">
<path fillRule="evenodd" clipRule="evenodd" d="M13.4697 4.46967C13.7626 4.17678 14.2374 4.17678 14.5303 4.46967C14.8232 4.76256 14.8232 5.23744 14.5303 5.53033L10.5607 9.5L14.5303 13.4697C14.8232 13.7626 14.8232 14.2374 14.5303 14.5303C14.2374 14.8232 13.7626 14.8232 13.4697 14.5303L9.5 10.5607L5.53033 14.5303C5.23744 14.8232 4.76256 14.8232 4.46967 14.5303C4.17678 14.2374 4.17678 13.7626 4.46967 13.4697L8.43934 9.5L4.46967 5.53033C4.17678 5.23744 4.17678 4.76256 4.46967 4.46967C4.76256 4.17678 5.23744 4.17678 5.53033 4.46967L9.5 8.43934L13.4697 4.46967Z" fill="#676879"/>
</svg>
