<svg width="20" height="20" viewBox="0 0 20 20" fill="none" xmlns="http://www.w3.org/2000/svg">
<path fillRule="evenodd" clipRule="evenodd" d="M7.82559 3.7273C7.82559 3.58922 7.93752 3.47729 8.07559 3.47729H9.7692H13.1565C13.2183 3.47729 13.2778 3.50016 13.3237 3.54147L15.9398 5.89592C15.9925 5.94334 16.0226 6.01088 16.0226 6.08175V13.3637C16.0226 13.5017 15.9106 13.6137 15.7726 13.6137H8.0756C7.93752 13.6137 7.82559 13.5017 7.82559 13.3637V3.7273ZM8.07559 1.97729C7.1091 1.97729 6.32559 2.7608 6.32559 3.7273V4.88639H5.1665C4.20001 4.88639 3.4165 5.66989 3.4165 6.63639V16.2727C3.4165 17.2392 4.20001 18.0228 5.1665 18.0228H11.8938C12.8603 18.0228 13.6438 17.2392 13.6438 16.2727V15.1137H15.7726C16.7391 15.1137 17.5226 14.3302 17.5226 13.3637V6.08175C17.5226 5.58565 17.312 5.11286 16.9433 4.78098L14.3272 2.42653C14.0059 2.13732 13.5888 1.97729 13.1565 1.97729H9.7692H8.07559ZM12.1438 15.1137H8.0756C7.1091 15.1137 6.32559 14.3302 6.32559 13.3637V6.38639H5.1665C5.02843 6.38639 4.9165 6.49831 4.9165 6.63639V16.2727C4.9165 16.4108 5.02843 16.5227 5.1665 16.5227H11.8938C12.0318 16.5227 12.1438 16.4108 12.1438 16.2727V15.1137Z" fill="#676879"/>
</svg>
