<svg height="512pt" viewBox="-20 0 512 512" width="512pt" xmlns="http://www.w3.org/2000/svg"><path d="m411 0h-311c-33.085938 0-60 26.914062-60 60v37h-40v40h40v100h-40v40h40v100h-40v40h40v35c0 33.085938 26.914062 60 60 60h311c33.085938 0 60-26.914062 60-60v-392c0-33.085938-26.914062-60-60-60zm20 452c0 11.027344-8.972656 20-20 20h-311c-11.027344 0-20-8.972656-20-20v-35h9v-.050781c.332031.015625.664062.050781 1 .050781 11.046875 0 20-8.953125 20-20s-8.953125-20-20-20c-.335938 0-.667969.035156-1 .050781v-.050781h-9v-100h9v-.050781c.332031.015625.664062.050781 1 .050781 11.046875 0 20-8.953125 20-20s-8.953125-20-20-20c-.335938 0-.667969.035156-1 .050781v-.050781h-9v-100h9v-.050781c.332031.015625.664062.050781 1 .050781 11.046875 0 20-8.953125 20-20s-8.953125-20-20-20c-.335938 0-.667969.035156-1 .050781v-.050781h-9v-37c0-11.027344 8.972656-20 20-20h311c11.027344 0 20 8.972656 20 20zm-112.996094-201.257812c9.949219-12.21875 15.925782-27.792969 15.925782-44.742188 0-39.148438-31.851563-71-71-71-39.148438 0-71 31.851562-71 71 0 17.304688 6.230468 33.175781 16.554687 45.507812-38.867187 20.15625-65.484375 60.773438-65.484375 107.492188h40c0-44.664062 36.335938-81 81-81s81 36.335938 81 81h40c0-47.324219-27.3125-88.378906-66.996094-108.257812zm-55.074218-75.742188c17.09375 0 31 13.90625 31 31s-13.90625 31-31 31-31-13.90625-31-31 13.90625-31 31-31zm0 0"/></svg>