<svg width="20" height="20" viewBox="0 0 20 20" fill="none" xmlns="http://www.w3.org/2000/svg">
<path fillRule="evenodd" clip-rule="evenodd" d="M3.52258 2.21527C3.81568 2.09386 4.12983 2.03137 4.44708 2.03137C4.76433 2.03137 5.07848 2.09386 5.37158 2.21527C5.66468 2.33667 5.931 2.51462 6.15533 2.73895C6.37966 2.96328 6.55761 3.2296 6.67902 3.5227C6.70279 3.58011 6.72431 3.63831 6.74354 3.69719H17.2185C17.6327 3.69719 17.9685 4.03298 17.9685 4.44719C17.9685 4.86141 17.6327 5.19719 17.2185 5.19719H6.74355C6.72432 5.25608 6.7028 5.31429 6.67902 5.3717C6.55761 5.6648 6.37966 5.93112 6.15533 6.15545C5.931 6.37978 5.66468 6.55773 5.37158 6.67914C5.07848 6.80055 4.76433 6.86303 4.44708 6.86303C4.12983 6.86303 3.81569 6.80055 3.52258 6.67914C3.22948 6.55773 2.96316 6.37978 2.73883 6.15545C2.5145 5.93112 2.33655 5.6648 2.21514 5.3717C2.09374 5.0786 2.03125 4.76445 2.03125 4.4472C2.03125 4.12995 2.09374 3.81581 2.21514 3.5227C2.33655 3.2296 2.5145 2.96328 2.73883 2.73895C2.96316 2.51462 3.22948 2.33667 3.52258 2.21527ZM4.44708 3.53137C4.32681 3.53137 4.20772 3.55506 4.09661 3.60109C3.98549 3.64711 3.88453 3.71457 3.79949 3.79961C3.71445 3.88466 3.64699 3.98562 3.60096 4.09673C3.55494 4.20784 3.53125 4.32693 3.53125 4.4472C3.53125 4.56747 3.55494 4.68656 3.60096 4.79768C3.64699 4.90879 3.71445 5.00975 3.79949 5.09479C3.88453 5.17984 3.98549 5.2473 4.09661 5.29332C4.20772 5.33935 4.32681 5.36303 4.44708 5.36303C4.56735 5.36303 4.68644 5.33935 4.79755 5.29332C4.90867 5.2473 5.00963 5.17984 5.09467 5.09479C5.17971 5.00975 5.24717 4.90879 5.2932 4.79768C5.33922 4.68656 5.36291 4.56747 5.36291 4.4472C5.36291 4.32693 5.33922 4.20784 5.2932 4.09673C5.24717 3.98562 5.17971 3.88466 5.09467 3.79961C5.00963 3.71457 4.90867 3.64711 4.79755 3.60109C4.68644 3.55506 4.56735 3.53137 4.44708 3.53137ZM9.99985 7.58414C9.6826 7.58414 9.36845 7.64663 9.07535 7.76803C8.78225 7.88944 8.51593 8.06739 8.2916 8.29172C8.06727 8.51605 7.88932 8.78237 7.76791 9.07547C7.74413 9.13288 7.72261 9.19109 7.70338 9.24998H2.78125C2.36704 9.24998 2.03125 9.58576 2.03125 9.99998C2.03125 10.4142 2.36704 10.75 2.78125 10.75H7.70339C7.72262 10.8089 7.74413 10.8671 7.76791 10.9245C7.88932 11.2176 8.06727 11.4839 8.2916 11.7082C8.51593 11.9326 8.78225 12.1105 9.07535 12.2319C9.36845 12.3533 9.6826 12.4158 9.99985 12.4158C10.3171 12.4158 10.6312 12.3533 10.9243 12.2319C11.2174 12.1105 11.4838 11.9326 11.7081 11.7082C11.9324 11.4839 12.1104 11.2176 12.2318 10.9245C12.2556 10.8671 12.2771 10.8089 12.2963 10.75H17.2184C17.6327 10.75 17.9684 10.4142 17.9684 9.99998C17.9684 9.58576 17.6327 9.24998 17.2184 9.24998H12.2963C12.2771 9.19109 12.2556 9.13288 12.2318 9.07547C12.1104 8.78237 11.9324 8.51605 11.7081 8.29172C11.4838 8.06739 11.2174 7.88944 10.9243 7.76803C10.6312 7.64663 10.3171 7.58414 9.99985 7.58414ZM10.9157 9.99871C10.9155 9.87887 10.8918 9.76022 10.846 9.6495C10.7999 9.53838 10.7325 9.43742 10.6474 9.35238C10.5624 9.26734 10.4614 9.19988 10.3503 9.15385C10.2392 9.10783 10.1201 9.08414 9.99985 9.08414C9.87958 9.08414 9.76049 9.10783 9.64937 9.15385C9.53826 9.19988 9.4373 9.26734 9.35226 9.35238C9.26721 9.43742 9.19975 9.53838 9.15373 9.6495C9.10795 9.76003 9.08427 9.87845 9.08402 9.99808L9.08402 9.99998L9.08402 10.0019C9.08427 10.1215 9.10795 10.2399 9.15373 10.3504C9.19975 10.4616 9.26721 10.5625 9.35226 10.6476C9.4373 10.7326 9.53826 10.8001 9.64937 10.8461C9.76049 10.8921 9.87958 10.9158 9.99985 10.9158C10.1201 10.9158 10.2392 10.8921 10.3503 10.8461C10.4614 10.8001 10.5624 10.7326 10.6474 10.6476C10.7325 10.5625 10.7999 10.4616 10.846 10.3504C10.892 10.2393 10.9157 10.1202 10.9157 9.99997L10.9157 9.99871ZM13.8444 13.8445C14.2974 13.3914 14.9119 13.1369 15.5526 13.1369C16.1933 13.1369 16.8078 13.3914 17.2609 13.8445C17.7139 14.2976 17.9685 14.912 17.9685 15.5528C17.9685 16.1935 17.7139 16.8079 17.2609 17.261C16.8078 17.7141 16.1933 17.9686 15.5526 17.9686C14.9119 17.9686 14.2974 17.7141 13.8444 17.261C13.5731 16.9898 13.3731 16.6607 13.2562 16.3027H2.78125C2.36704 16.3027 2.03125 15.967 2.03125 15.5527C2.03125 15.1385 2.36704 14.8027 2.78125 14.8027H13.2562C13.3731 14.4448 13.5731 14.1157 13.8444 13.8445ZM15.5526 14.6369C15.3097 14.6369 15.0768 14.7334 14.905 14.9052C14.7333 15.0769 14.6368 15.3099 14.6368 15.5528C14.6368 15.7956 14.7333 16.0286 14.905 16.2003C15.0768 16.3721 15.3097 16.4686 15.5526 16.4686C15.7955 16.4686 16.0285 16.3721 16.2002 16.2003C16.372 16.0286 16.4685 15.7956 16.4685 15.5528C16.4685 15.3099 16.372 15.0769 16.2002 14.9052C16.0285 14.7334 15.7955 14.6369 15.5526 14.6369Z" fill="#676879"/>
</svg>
