<svg width="20" height="20" viewBox="0 0 20 20" fill="none" xmlns="http://www.w3.org/2000/svg">
<path fillRule="evenodd" clipRule="evenodd" d="M9.14944 2.76638C9.62904 2.32104 10.371 2.32104 10.8506 2.76638L17.1908 8.65373C17.5474 8.98485 17.75 9.4495 17.75 9.93612V16.0001C17.75 16.9666 16.9665 17.7501 16 17.7501H4C3.0335 17.7501 2.25 16.9666 2.25 16.0001V9.93612C2.25 9.4495 2.45262 8.98486 2.80921 8.65373L9.14944 2.76638ZM10 4.02353L3.82989 9.75292C3.77895 9.80023 3.75 9.8666 3.75 9.93612V16.0001C3.75 16.1381 3.86193 16.2501 4 16.2501H16C16.1381 16.2501 16.25 16.1381 16.25 16.0001V9.93612C16.25 9.8666 16.2211 9.80023 16.1701 9.75292L10 4.02353Z" fill="#676879"/>
</svg>
